<?xml version="1.0" encoding="UTF-8"?>
<svg id="_레이어_1" data-name="레이어 1" xmlns="http://www.w3.org/2000/svg" viewBox="0 0 2440.1 284.27">
  <g>
    <path d="M180.35,235.01c-13.34,0-26.09-2.04-38.25-6.12-12.17-4.08-21.75-9.38-28.75-15.88l9.25-19.5c6.66,5.84,15.16,10.67,25.5,14.5,10.33,3.84,21.08,5.75,32.25,5.75,10.16,0,18.41-1.16,24.75-3.5,6.33-2.33,11-5.54,14-9.62,3-4.08,4.5-8.71,4.5-13.88,0-6-1.96-10.83-5.88-14.5-3.92-3.66-9-6.62-15.25-8.88s-13.12-4.21-20.62-5.88c-7.5-1.66-15.04-3.62-22.62-5.88-7.59-2.25-14.5-5.12-20.75-8.62s-11.29-8.21-15.12-14.12c-3.84-5.91-5.75-13.54-5.75-22.88s2.38-17.29,7.12-24.88c4.75-7.58,12.08-13.66,22-18.25,9.91-4.58,22.54-6.88,37.88-6.88,10.16,0,20.25,1.34,30.25,4,10,2.67,18.66,6.5,26,11.5l-8.25,20c-7.5-5-15.42-8.62-23.75-10.88-8.34-2.25-16.42-3.38-24.25-3.38-9.84,0-17.92,1.25-24.25,3.75-6.34,2.5-10.96,5.84-13.88,10-2.92,4.17-4.38,8.84-4.38,14,0,6.17,1.96,11.09,5.88,14.75,3.91,3.67,9,6.59,15.25,8.75,6.25,2.17,13.12,4.12,20.62,5.88s15.04,3.71,22.62,5.88c7.58,2.17,14.5,5,20.75,8.5s11.29,8.17,15.12,14c3.83,5.84,5.75,13.34,5.75,22.5s-2.42,17.04-7.25,24.62c-4.84,7.59-12.29,13.67-22.38,18.25-10.09,4.59-22.79,6.88-38.12,6.88Z"/>
    <path d="M309.6,211.26h102v21.75h-127V58.01h123.5v21.75h-98.5v131.5ZM307.35,133.51h90v21.25h-90v-21.25Z"/>
    <path d="M477.1,211.26h102v21.75h-127V58.01h123.5v21.75h-98.5v131.5ZM474.85,133.51h90v21.25h-90v-21.25Z"/>
    <path d="M727.59,233.01l79.25-175h24.75l79.5,175h-26.25l-70.75-161h10l-70.75,161h-25.75ZM761.34,189.26l6.75-20h98.5l7.25,20h-112.5Z"/>
    <path d="M1045.09,233.01l79.25-175h24.75l79.5,175h-26.25l-70.75-161h10l-70.75,161h-25.75ZM1078.84,189.26l6.75-20h98.5l7.25,20h-112.5Z"/>
    <path d="M1305.59,235.01c-13.34,0-26.09-2.04-38.25-6.12-12.17-4.08-21.75-9.38-28.75-15.88l9.25-19.5c6.66,5.84,15.16,10.67,25.5,14.5,10.33,3.84,21.08,5.75,32.25,5.75,10.16,0,18.41-1.16,24.75-3.5,6.33-2.33,11-5.54,14-9.62,3-4.08,4.5-8.71,4.5-13.88,0-6-1.96-10.83-5.88-14.5-3.92-3.66-9-6.62-15.25-8.88s-13.12-4.21-20.62-5.88c-7.5-1.66-15.04-3.62-22.62-5.88-7.59-2.25-14.5-5.12-20.75-8.62s-11.29-8.21-15.12-14.12c-3.84-5.91-5.75-13.54-5.75-22.88s2.38-17.29,7.12-24.88c4.75-7.58,12.08-13.66,22-18.25,9.91-4.58,22.54-6.88,37.88-6.88,10.16,0,20.25,1.34,30.25,4,10,2.67,18.66,6.5,26,11.5l-8.25,20c-7.5-5-15.42-8.62-23.75-10.88-8.34-2.25-16.42-3.38-24.25-3.38-9.84,0-17.92,1.25-24.25,3.75-6.34,2.5-10.96,5.84-13.88,10-2.92,4.17-4.38,8.84-4.38,14,0,6.17,1.96,11.09,5.88,14.75,3.91,3.67,9,6.59,15.25,8.75,6.25,2.17,13.12,4.12,20.62,5.88s15.04,3.71,22.62,5.88c7.58,2.17,14.5,5,20.75,8.5s11.29,8.17,15.12,14c3.83,5.84,5.75,13.34,5.75,22.5s-2.42,17.04-7.25,24.62c-4.84,7.59-12.29,13.67-22.38,18.25-10.09,4.59-22.79,6.88-38.12,6.88Z"/>
    <path d="M1460.84,235.01c-13.34,0-26.09-2.04-38.25-6.12-12.17-4.08-21.75-9.38-28.75-15.88l9.25-19.5c6.66,5.84,15.16,10.67,25.5,14.5,10.33,3.84,21.08,5.75,32.25,5.75,10.16,0,18.41-1.16,24.75-3.5,6.33-2.33,11-5.54,14-9.62,3-4.08,4.5-8.71,4.5-13.88,0-6-1.96-10.83-5.88-14.5-3.92-3.66-9-6.62-15.25-8.88s-13.12-4.21-20.62-5.88c-7.5-1.66-15.04-3.62-22.62-5.88-7.59-2.25-14.5-5.12-20.75-8.62s-11.29-8.21-15.12-14.12c-3.84-5.91-5.75-13.54-5.75-22.88s2.38-17.29,7.12-24.88c4.75-7.58,12.08-13.66,22-18.25,9.91-4.58,22.54-6.88,37.88-6.88,10.16,0,20.25,1.34,30.25,4,10,2.67,18.66,6.5,26,11.5l-8.25,20c-7.5-5-15.42-8.62-23.75-10.88-8.34-2.25-16.42-3.38-24.25-3.38-9.84,0-17.92,1.25-24.25,3.75-6.34,2.5-10.96,5.84-13.88,10-2.92,4.17-4.38,8.84-4.38,14,0,6.17,1.96,11.09,5.88,14.75,3.91,3.67,9,6.59,15.25,8.75,6.25,2.17,13.12,4.12,20.62,5.88s15.04,3.71,22.62,5.88c7.58,2.17,14.5,5,20.75,8.5s11.29,8.17,15.12,14c3.83,5.84,5.75,13.34,5.75,22.5s-2.42,17.04-7.25,24.62c-4.84,7.59-12.29,13.67-22.38,18.25-10.09,4.59-22.79,6.88-38.12,6.88Z"/>
    <path d="M1590.08,211.26h102v21.75h-127V58.01h123.5v21.75h-98.5v131.5ZM1587.83,133.51h90v21.25h-90v-21.25Z"/>
    <path d="M1767.33,233.01V79.76h-60v-21.75h144.75v21.75h-60v153.25h-24.75Z"/>
  </g>
  <g>
    <path d="M2024.06,50.88c6.79,0,13.3.92,19.5,2.77,6.21,1.85,11.71,4.51,16.51,7.98,4.8,3.47,8.61,7.8,11.42,12.97,2.8,5.17,4.21,11.08,4.21,17.73,0,6.06-1.15,11.45-3.44,16.18-2.29,4.73-5.36,8.83-9.2,12.3-3.84,3.47-8.39,6.24-13.63,8.31-5.25,2.07-10.83,3.47-16.73,4.21v25.49l46.99-.67c2.51-.15,4.69-.52,6.54-1.11,1.85-.59,3.43-1.18,4.76-1.77,1.48-.74,3.21-1.36,5.21-1.88,1.99-.52,5.06-.92,9.2-1.22,1.18,0,2.47.04,3.88.11,1.4.08,3.14.19,5.21.33,1.33,0,2.66.08,3.99.22,1.33.15,2.66.22,3.99.22,2.66.3,4.54,1.3,5.65,2.99,1.11,1.7,1.66,3.53,1.66,5.49,0,2.11-.48,4-1.44,5.66-.96,1.66-2.4,2.49-4.32,2.49-6.65,0-15.15.04-25.49.11-10.34.08-21.65.19-33.91.33-12.27.15-25.01.3-38.23.44-13.23.15-25.97.3-38.23.44-12.27.15-23.61.33-34.02.55-10.42.22-18.88.41-25.38.55-2.22.15-3.88-.56-4.99-2.13-1.11-1.57-1.66-3.18-1.66-4.84,0-1.51.48-2.87,1.44-4.08.96-1.21,2.55-1.81,4.76-1.81h14.85c6.21,0,13.19-.03,20.94-.11,7.76-.07,16.03-.15,24.82-.22,8.79-.07,17.69-.11,26.71-.11v-25.49c-6.06-.59-11.71-1.88-16.96-3.88-5.25-2-9.79-4.73-13.63-8.2-3.84-3.47-6.87-7.61-9.09-12.41-2.22-4.8-3.33-10.31-3.33-16.51,0-6.79,1.37-12.78,4.1-17.95,2.73-5.17,6.43-9.49,11.08-12.97,4.65-3.47,10.08-6.1,16.29-7.87,6.21-1.77,12.85-2.66,19.95-2.66ZM2094.1,247.25c-11.38,0-21.69.07-30.92.22-9.24.15-18.51.37-27.82.67-7.09.29-14.26.48-21.5.55-7.24.07-15.29.18-24.16.33-3.4,0-6.13-.47-8.2-1.42-2.07-.95-3.7-2.11-4.88-3.48-1.18-1.38-2-2.79-2.44-4.23-.44-1.45-.67-2.62-.67-3.5l.22-25.93c0-1.62-.44-3.36-1.33-5.21-.89-1.85-2.14-3.14-3.77-3.88l-7.31-3.1c-.89-.29-1.66-1.03-2.33-2.22-.67-1.18-.85-2.73-.55-4.65.59-1.48,1.55-2.47,2.88-2.99,1.33-.52,2.58-.63,3.77-.33l17.73,3.55c2.8.59,5.06,1.7,6.76,3.32,1.7,1.63,2.55,3.7,2.55,6.21v27.48c0,2.22.33,4.36,1,6.43.67,2.07,2.69,3.1,6.1,3.1,9.75,0,18.62-.15,26.6-.44,7.98-.3,15.96-.44,23.94-.44,2.95,0,5.21-.3,6.76-.89,1.55-.59,3.06-1.26,4.54-1.99,1.47-.74,3.21-1.37,5.21-1.88,2-.52,5.06-.92,9.2-1.22,3.1,0,5.95.07,8.53.22,2.58.15,5.43.37,8.53.67,2.66.29,4.54,1.25,5.65,2.88,1.11,1.62,1.66,3.3,1.66,5.04,0,1.88-.48,3.54-1.44,4.99-.96,1.44-2.4,2.17-4.32,2.17ZM2024.06,62.62c-5.62,0-10.53.78-14.74,2.33-4.21,1.55-7.68,3.66-10.42,6.32-2.74,2.66-4.8,5.8-6.21,9.42-1.41,3.62-2.11,7.5-2.11,11.64s.7,7.8,2.11,11.41c1.4,3.62,3.51,6.8,6.32,9.53,2.8,2.74,6.28,4.88,10.42,6.43,4.13,1.55,9.01,2.33,14.63,2.33s10.31-.78,14.52-2.33,7.72-3.69,10.53-6.43c2.8-2.73,4.95-5.91,6.43-9.53,1.47-3.62,2.22-7.43,2.22-11.41s-.7-8.01-2.11-11.64c-1.41-3.62-3.51-6.76-6.32-9.42-2.81-2.66-6.32-4.77-10.53-6.32-4.21-1.55-9.12-2.33-14.74-2.33Z"/>
    <path d="M2157.49,88.11c0-1.62-.44-3.36-1.33-5.21-.89-1.85-2.14-3.06-3.77-3.66l-7.09-3.1c-1.63-.59-2.59-1.48-2.88-2.66-.3-1.18-.19-2.33.33-3.44.52-1.11,1.33-2.07,2.44-2.88,1.11-.81,2.4-1.07,3.88-.78l11.75,2.22h24.27c2.14,0,5.65-.07,10.53-.22,2.36-.15,4.47-.48,6.32-1,1.85-.52,3.36-1.07,4.54-1.66,1.47-.74,3.21-1.36,5.21-1.88,2-.52,4.91-.92,8.75-1.22,3.1,0,6.1.11,8.98.33,2.88.22,5.43.48,7.65.78,2.51.3,4.32,1.22,5.43,2.77s1.66,3.29,1.66,5.21-.48,3.7-1.44,5.32c-.96,1.63-2.33,2.44-4.1,2.44h-19.28c-4.73,0-9.05.08-12.97.22-3.92.15-8.13.3-12.63.44-4.51.15-10.68.3-18.51.44v49.65c0,1.92.33,3.44,1,4.54.66,1.11,1.47,1.99,2.44,2.66.96.66,2,1.07,3.1,1.22,1.11.15,2.03.15,2.77,0,6.94-.74,14.04-1.73,21.28-2.99,7.24-1.25,14.11-2.66,20.61-4.21,6.5-1.55,12.48-3.29,17.95-5.21,5.46-1.92,9.9-3.91,13.3-5.98,2.07-1.33,3.95-1.85,5.65-1.55,1.7.3,2.99,1,3.88,2.11.89,1.11,1.22,2.44,1,3.99-.22,1.55-1.15,2.99-2.77,4.32-3.99,3.25-9.61,6.24-16.84,8.98-7.24,2.74-15.18,5.21-23.83,7.43-8.64,2.22-17.36,4.03-26.15,5.43-8.79,1.41-16.73,2.4-23.83,2.99-1.77.15-3.66-.22-5.65-1.11-2-.89-3.84-2.14-5.54-3.77-1.7-1.62-3.14-3.58-4.32-5.87-1.18-2.29-1.77-4.91-1.77-7.87v-47.21ZM2229.96,180.98c5.91,0,11.38-.11,16.4-.33,5.02-.22,10.42-.48,16.18-.78l7.54-.44c2.36-.15,4.32-.41,5.87-.78,1.55-.37,2.92-.78,4.1-1.22,1.03-.29,2.14-.63,3.32-1,1.18-.37,2.51-.55,3.99-.55,1.18,0,2.58.11,4.21.33,1.62.22,3.62.7,5.98,1.44,2.07.59,3.47,1.92,4.21,3.99.74,2.07,1.11,3.99,1.11,5.76l-2.66,54.75c-.15,2.95-1.29,5.13-3.44,6.54-2.14,1.4-4.47,2.11-6.98,2.11h-73.14c-.59,1.77-1.66,3.14-3.21,4.1-1.55.96-3.14,1.44-4.77,1.44-1.77,0-3.36-.48-4.76-1.44-1.41-.96-2.11-2.55-2.11-4.77-.44-8.87-.96-17.44-1.55-25.71-.59-8.27-1.11-16.84-1.55-25.71,0-1.62-.44-3.4-1.33-5.32-.89-1.92-2.14-3.18-3.77-3.77l-7.31-3.1c-.89-.29-1.74-1.03-2.55-2.22-.81-1.18-.92-2.73-.33-4.65.44-1.48,1.36-2.47,2.77-2.99,1.4-.52,2.69-.63,3.88-.33,4.58.89,8.12,1.63,10.64,2.22,2.51.59,4.43,1.04,5.76,1.33,1.33.3,2.18.48,2.55.55.37.08.7.19,1,.33,3.4.15,6.72.22,9.97.22h9.97ZM2267.86,191.84h-12.52c-4.07,0-8.17.04-12.3.11-4.14.08-8.35.15-12.63.22-4.29.08-8.87.19-13.74.33v46.32h61.84c2.66,0,4.36-.96,5.1-2.88.74-1.92,1.11-3.92,1.11-5.98v-32.36c0-2.36-.55-3.91-1.66-4.65-1.11-.74-2.7-1.11-4.76-1.11h-10.42ZM2302.66,102.08c2.95,0,5.17-.18,6.65-.55,1.48-.37,2.88-.85,4.21-1.44,1.47-.59,3.29-1.14,5.43-1.66,2.14-.52,5.13-.92,8.98-1.22,1.18,0,2.47.04,3.88.11,1.4.08,3.14.19,5.21.33,1.33,0,2.66.08,3.99.22,1.33.15,2.66.22,3.99.22,2.66.3,4.54,1.26,5.65,2.88,1.11,1.63,1.66,3.4,1.66,5.32s-.48,3.66-1.44,5.21c-.96,1.55-2.4,2.33-4.32,2.33-8.28,0-15.74.08-22.39.22-6.65.15-13.82.3-21.5.44v43c0,2.07-1,3.66-2.99,4.77-2,1.11-4.1,1.66-6.32,1.66-2.07,0-3.88-.48-5.43-1.44-1.55-.96-2.33-2.55-2.33-4.77V62.4c0-1.62-.44-3.21-1.33-4.77-.89-1.55-2.14-2.47-3.77-2.77l-12.19-2.22c-1.04-.15-1.96-.67-2.77-1.55-.81-.89-1.07-2.36-.78-4.43.29-1.77,1-3.14,2.11-4.1,1.11-.96,2.25-1.36,3.44-1.22l21.94,2.22c2.95.3,5.43,1.66,7.43,4.1,1.99,2.44,2.99,4.99,2.99,7.65v46.77Z"/>
  </g>
</svg>